<mxfile host="app.diagrams.net" agent="Mozilla/5.0 (Windows NT 10.0; Win64; x64) AppleWebKit/537.36 (KHTML, like Gecko) Chrome/135.0.0.0 Safari/537.36 Edg/135.0.0.0" version="26.2.12" pages="3">
  <diagram id="ZnLHULsNhSrv_p3sBjEJ" name="problem2_static_cmos">
    <mxGraphModel dx="1714" dy="920" grid="1" gridSize="10" guides="1" tooltips="1" connect="1" arrows="1" fold="1" page="1" pageScale="1" pageWidth="850" pageHeight="1100" math="0" shadow="0">
      <root>
        <mxCell id="0" />
        <mxCell id="1" parent="0" />
        <mxCell id="UbY_swUOJ2oPkTldAtvl-1" value="" style="group" vertex="1" connectable="0" parent="1">
          <mxGeometry x="280" y="500" width="40" height="40" as="geometry" />
        </mxCell>
        <mxCell id="UbY_swUOJ2oPkTldAtvl-2" value="" style="endArrow=none;html=1;rounded=0;" edge="1" parent="UbY_swUOJ2oPkTldAtvl-1">
          <mxGeometry width="50" height="50" relative="1" as="geometry">
            <mxPoint x="10" y="40" as="sourcePoint" />
            <mxPoint x="10" as="targetPoint" />
          </mxGeometry>
        </mxCell>
        <mxCell id="UbY_swUOJ2oPkTldAtvl-3" value="" style="endArrow=none;html=1;rounded=0;" edge="1" parent="UbY_swUOJ2oPkTldAtvl-1">
          <mxGeometry width="50" height="50" relative="1" as="geometry">
            <mxPoint y="40" as="sourcePoint" />
            <mxPoint as="targetPoint" />
          </mxGeometry>
        </mxCell>
        <mxCell id="UbY_swUOJ2oPkTldAtvl-4" value="" style="endArrow=none;html=1;rounded=0;" edge="1" parent="UbY_swUOJ2oPkTldAtvl-1">
          <mxGeometry width="50" height="50" relative="1" as="geometry">
            <mxPoint x="40" as="sourcePoint" />
            <mxPoint x="10" as="targetPoint" />
          </mxGeometry>
        </mxCell>
        <mxCell id="UbY_swUOJ2oPkTldAtvl-5" value="" style="endArrow=none;html=1;rounded=0;" edge="1" parent="UbY_swUOJ2oPkTldAtvl-1">
          <mxGeometry width="50" height="50" relative="1" as="geometry">
            <mxPoint x="40" y="40" as="sourcePoint" />
            <mxPoint x="10" y="40" as="targetPoint" />
          </mxGeometry>
        </mxCell>
        <mxCell id="UbY_swUOJ2oPkTldAtvl-7" value="" style="group" vertex="1" connectable="0" parent="1">
          <mxGeometry x="320" y="620" width="40" height="40" as="geometry" />
        </mxCell>
        <mxCell id="UbY_swUOJ2oPkTldAtvl-8" value="" style="endArrow=none;html=1;rounded=0;" edge="1" parent="UbY_swUOJ2oPkTldAtvl-7">
          <mxGeometry width="50" height="50" relative="1" as="geometry">
            <mxPoint x="10" y="40" as="sourcePoint" />
            <mxPoint x="10" as="targetPoint" />
          </mxGeometry>
        </mxCell>
        <mxCell id="UbY_swUOJ2oPkTldAtvl-9" value="" style="endArrow=none;html=1;rounded=0;" edge="1" parent="UbY_swUOJ2oPkTldAtvl-7">
          <mxGeometry width="50" height="50" relative="1" as="geometry">
            <mxPoint y="40" as="sourcePoint" />
            <mxPoint as="targetPoint" />
          </mxGeometry>
        </mxCell>
        <mxCell id="UbY_swUOJ2oPkTldAtvl-10" value="" style="endArrow=none;html=1;rounded=0;" edge="1" parent="UbY_swUOJ2oPkTldAtvl-7">
          <mxGeometry width="50" height="50" relative="1" as="geometry">
            <mxPoint x="40" as="sourcePoint" />
            <mxPoint x="10" as="targetPoint" />
          </mxGeometry>
        </mxCell>
        <mxCell id="UbY_swUOJ2oPkTldAtvl-13" value="" style="group;rotation=-180;" vertex="1" connectable="0" parent="1">
          <mxGeometry x="400" y="500" width="40" height="40" as="geometry" />
        </mxCell>
        <mxCell id="UbY_swUOJ2oPkTldAtvl-14" value="" style="endArrow=none;html=1;rounded=0;" edge="1" parent="UbY_swUOJ2oPkTldAtvl-13">
          <mxGeometry width="50" height="50" relative="1" as="geometry">
            <mxPoint x="30" as="sourcePoint" />
            <mxPoint x="30" y="40" as="targetPoint" />
          </mxGeometry>
        </mxCell>
        <mxCell id="UbY_swUOJ2oPkTldAtvl-15" value="" style="endArrow=none;html=1;rounded=0;" edge="1" parent="UbY_swUOJ2oPkTldAtvl-13">
          <mxGeometry width="50" height="50" relative="1" as="geometry">
            <mxPoint x="40" as="sourcePoint" />
            <mxPoint x="40" y="40" as="targetPoint" />
          </mxGeometry>
        </mxCell>
        <mxCell id="UbY_swUOJ2oPkTldAtvl-16" value="" style="endArrow=none;html=1;rounded=0;" edge="1" parent="UbY_swUOJ2oPkTldAtvl-13">
          <mxGeometry width="50" height="50" relative="1" as="geometry">
            <mxPoint y="40" as="sourcePoint" />
            <mxPoint x="30" y="40" as="targetPoint" />
          </mxGeometry>
        </mxCell>
        <mxCell id="UbY_swUOJ2oPkTldAtvl-17" value="" style="endArrow=none;html=1;rounded=0;" edge="1" parent="UbY_swUOJ2oPkTldAtvl-13">
          <mxGeometry width="50" height="50" relative="1" as="geometry">
            <mxPoint as="sourcePoint" />
            <mxPoint x="30" as="targetPoint" />
          </mxGeometry>
        </mxCell>
        <mxCell id="UbY_swUOJ2oPkTldAtvl-19" value="" style="group" vertex="1" connectable="0" parent="1">
          <mxGeometry x="310" y="220" width="50" height="40" as="geometry" />
        </mxCell>
        <mxCell id="UbY_swUOJ2oPkTldAtvl-20" value="" style="endArrow=none;html=1;rounded=0;" edge="1" parent="UbY_swUOJ2oPkTldAtvl-19">
          <mxGeometry width="50" height="50" relative="1" as="geometry">
            <mxPoint x="20" y="40" as="sourcePoint" />
            <mxPoint x="20" as="targetPoint" />
          </mxGeometry>
        </mxCell>
        <mxCell id="UbY_swUOJ2oPkTldAtvl-21" value="" style="endArrow=none;html=1;rounded=0;" edge="1" parent="UbY_swUOJ2oPkTldAtvl-19">
          <mxGeometry width="50" height="50" relative="1" as="geometry">
            <mxPoint x="10" y="40" as="sourcePoint" />
            <mxPoint x="10" as="targetPoint" />
          </mxGeometry>
        </mxCell>
        <mxCell id="UbY_swUOJ2oPkTldAtvl-22" value="" style="endArrow=none;html=1;rounded=0;" edge="1" parent="UbY_swUOJ2oPkTldAtvl-19">
          <mxGeometry width="50" height="50" relative="1" as="geometry">
            <mxPoint x="50" as="sourcePoint" />
            <mxPoint x="20" as="targetPoint" />
          </mxGeometry>
        </mxCell>
        <mxCell id="UbY_swUOJ2oPkTldAtvl-23" value="" style="endArrow=none;html=1;rounded=0;" edge="1" parent="UbY_swUOJ2oPkTldAtvl-19">
          <mxGeometry width="50" height="50" relative="1" as="geometry">
            <mxPoint x="50" y="40" as="sourcePoint" />
            <mxPoint x="20" y="40" as="targetPoint" />
          </mxGeometry>
        </mxCell>
        <mxCell id="UbY_swUOJ2oPkTldAtvl-24" value="" style="ellipse;whiteSpace=wrap;html=1;aspect=fixed;" vertex="1" parent="UbY_swUOJ2oPkTldAtvl-19">
          <mxGeometry y="15" width="10" height="10" as="geometry" />
        </mxCell>
        <mxCell id="UbY_swUOJ2oPkTldAtvl-26" value="" style="group" vertex="1" connectable="0" parent="1">
          <mxGeometry x="310" y="140" width="50" height="40" as="geometry" />
        </mxCell>
        <mxCell id="UbY_swUOJ2oPkTldAtvl-27" value="" style="endArrow=none;html=1;rounded=0;" edge="1" parent="UbY_swUOJ2oPkTldAtvl-26">
          <mxGeometry width="50" height="50" relative="1" as="geometry">
            <mxPoint x="20" y="40" as="sourcePoint" />
            <mxPoint x="20" as="targetPoint" />
          </mxGeometry>
        </mxCell>
        <mxCell id="UbY_swUOJ2oPkTldAtvl-28" value="" style="endArrow=none;html=1;rounded=0;" edge="1" parent="UbY_swUOJ2oPkTldAtvl-26">
          <mxGeometry width="50" height="50" relative="1" as="geometry">
            <mxPoint x="10" y="40" as="sourcePoint" />
            <mxPoint x="10" as="targetPoint" />
          </mxGeometry>
        </mxCell>
        <mxCell id="UbY_swUOJ2oPkTldAtvl-29" value="" style="endArrow=none;html=1;rounded=0;" edge="1" parent="UbY_swUOJ2oPkTldAtvl-26">
          <mxGeometry width="50" height="50" relative="1" as="geometry">
            <mxPoint x="50" as="sourcePoint" />
            <mxPoint x="20" as="targetPoint" />
          </mxGeometry>
        </mxCell>
        <mxCell id="UbY_swUOJ2oPkTldAtvl-30" value="" style="endArrow=none;html=1;rounded=0;" edge="1" parent="UbY_swUOJ2oPkTldAtvl-26">
          <mxGeometry width="50" height="50" relative="1" as="geometry">
            <mxPoint x="50" y="40" as="sourcePoint" />
            <mxPoint x="20" y="40" as="targetPoint" />
          </mxGeometry>
        </mxCell>
        <mxCell id="UbY_swUOJ2oPkTldAtvl-31" value="" style="ellipse;whiteSpace=wrap;html=1;aspect=fixed;" vertex="1" parent="UbY_swUOJ2oPkTldAtvl-26">
          <mxGeometry y="15" width="10" height="10" as="geometry" />
        </mxCell>
        <mxCell id="UbY_swUOJ2oPkTldAtvl-33" value="" style="group;rotation=-180;" vertex="1" connectable="0" parent="1">
          <mxGeometry x="440" y="180" width="50" height="40" as="geometry" />
        </mxCell>
        <mxCell id="UbY_swUOJ2oPkTldAtvl-34" value="" style="endArrow=none;html=1;rounded=0;" edge="1" parent="UbY_swUOJ2oPkTldAtvl-33">
          <mxGeometry width="50" height="50" relative="1" as="geometry">
            <mxPoint x="30" as="sourcePoint" />
            <mxPoint x="30" y="40" as="targetPoint" />
          </mxGeometry>
        </mxCell>
        <mxCell id="UbY_swUOJ2oPkTldAtvl-35" value="" style="endArrow=none;html=1;rounded=0;" edge="1" parent="UbY_swUOJ2oPkTldAtvl-33">
          <mxGeometry width="50" height="50" relative="1" as="geometry">
            <mxPoint x="40" as="sourcePoint" />
            <mxPoint x="40" y="40" as="targetPoint" />
          </mxGeometry>
        </mxCell>
        <mxCell id="UbY_swUOJ2oPkTldAtvl-36" value="" style="endArrow=none;html=1;rounded=0;" edge="1" parent="UbY_swUOJ2oPkTldAtvl-33">
          <mxGeometry width="50" height="50" relative="1" as="geometry">
            <mxPoint y="40" as="sourcePoint" />
            <mxPoint x="30" y="40" as="targetPoint" />
          </mxGeometry>
        </mxCell>
        <mxCell id="UbY_swUOJ2oPkTldAtvl-37" value="" style="endArrow=none;html=1;rounded=0;" edge="1" parent="UbY_swUOJ2oPkTldAtvl-33">
          <mxGeometry width="50" height="50" relative="1" as="geometry">
            <mxPoint as="sourcePoint" />
            <mxPoint x="30" as="targetPoint" />
          </mxGeometry>
        </mxCell>
        <mxCell id="UbY_swUOJ2oPkTldAtvl-38" value="" style="ellipse;whiteSpace=wrap;html=1;aspect=fixed;rotation=-180;" vertex="1" parent="UbY_swUOJ2oPkTldAtvl-33">
          <mxGeometry x="40" y="15" width="10" height="10" as="geometry" />
        </mxCell>
        <mxCell id="UbY_swUOJ2oPkTldAtvl-44" value="" style="endArrow=none;html=1;rounded=0;" edge="1" parent="1">
          <mxGeometry width="50" height="50" relative="1" as="geometry">
            <mxPoint x="400" y="460" as="sourcePoint" />
            <mxPoint x="400" y="380" as="targetPoint" />
          </mxGeometry>
        </mxCell>
        <mxCell id="UbY_swUOJ2oPkTldAtvl-45" value="" style="endArrow=none;html=1;rounded=0;" edge="1" parent="1">
          <mxGeometry width="50" height="50" relative="1" as="geometry">
            <mxPoint x="520" y="460" as="sourcePoint" />
            <mxPoint x="320" y="460" as="targetPoint" />
          </mxGeometry>
        </mxCell>
        <mxCell id="UbY_swUOJ2oPkTldAtvl-46" value="" style="endArrow=none;html=1;rounded=0;" edge="1" parent="1">
          <mxGeometry width="50" height="50" relative="1" as="geometry">
            <mxPoint x="320" y="500" as="sourcePoint" />
            <mxPoint x="320" y="460" as="targetPoint" />
          </mxGeometry>
        </mxCell>
        <mxCell id="UbY_swUOJ2oPkTldAtvl-48" value="" style="endArrow=none;html=1;rounded=0;" edge="1" parent="1">
          <mxGeometry width="50" height="50" relative="1" as="geometry">
            <mxPoint x="320" y="580" as="sourcePoint" />
            <mxPoint x="320" y="540" as="targetPoint" />
          </mxGeometry>
        </mxCell>
        <mxCell id="UbY_swUOJ2oPkTldAtvl-49" value="" style="endArrow=none;html=1;rounded=0;" edge="1" parent="1">
          <mxGeometry width="50" height="50" relative="1" as="geometry">
            <mxPoint x="400" y="580" as="sourcePoint" />
            <mxPoint x="320" y="580" as="targetPoint" />
          </mxGeometry>
        </mxCell>
        <mxCell id="UbY_swUOJ2oPkTldAtvl-50" value="" style="endArrow=none;html=1;rounded=0;" edge="1" parent="1">
          <mxGeometry width="50" height="50" relative="1" as="geometry">
            <mxPoint x="359.72" y="620" as="sourcePoint" />
            <mxPoint x="359.72" y="580" as="targetPoint" />
          </mxGeometry>
        </mxCell>
        <mxCell id="UbY_swUOJ2oPkTldAtvl-52" value="" style="endArrow=none;html=1;rounded=0;" edge="1" parent="1">
          <mxGeometry width="50" height="50" relative="1" as="geometry">
            <mxPoint x="480" y="420" as="sourcePoint" />
            <mxPoint x="400" y="420" as="targetPoint" />
          </mxGeometry>
        </mxCell>
        <mxCell id="UbY_swUOJ2oPkTldAtvl-53" value="" style="endArrow=none;html=1;rounded=0;" edge="1" parent="1">
          <mxGeometry width="50" height="50" relative="1" as="geometry">
            <mxPoint x="460" y="520" as="sourcePoint" />
            <mxPoint x="440" y="520" as="targetPoint" />
          </mxGeometry>
        </mxCell>
        <mxCell id="UbY_swUOJ2oPkTldAtvl-54" value="" style="endArrow=none;html=1;rounded=0;" edge="1" parent="1">
          <mxGeometry width="50" height="50" relative="1" as="geometry">
            <mxPoint x="300" y="640" as="sourcePoint" />
            <mxPoint x="320" y="640" as="targetPoint" />
          </mxGeometry>
        </mxCell>
        <mxCell id="UbY_swUOJ2oPkTldAtvl-55" value="" style="endArrow=none;html=1;rounded=0;" edge="1" parent="1">
          <mxGeometry width="50" height="50" relative="1" as="geometry">
            <mxPoint x="260" y="520" as="sourcePoint" />
            <mxPoint x="280" y="520" as="targetPoint" />
          </mxGeometry>
        </mxCell>
        <mxCell id="UbY_swUOJ2oPkTldAtvl-56" value="" style="endArrow=none;html=1;rounded=0;entryX=0;entryY=0.5;entryDx=0;entryDy=0;" edge="1" parent="1">
          <mxGeometry width="50" height="50" relative="1" as="geometry">
            <mxPoint x="300" y="160" as="sourcePoint" />
            <mxPoint x="309.9999999999998" y="160.0000000000001" as="targetPoint" />
          </mxGeometry>
        </mxCell>
        <mxCell id="UbY_swUOJ2oPkTldAtvl-57" value="" style="endArrow=none;html=1;rounded=0;entryX=0;entryY=0.5;entryDx=0;entryDy=0;" edge="1" parent="1" target="UbY_swUOJ2oPkTldAtvl-24">
          <mxGeometry width="50" height="50" relative="1" as="geometry">
            <mxPoint x="300" y="240" as="sourcePoint" />
            <mxPoint x="460.9999999999998" y="121.00000000000011" as="targetPoint" />
          </mxGeometry>
        </mxCell>
        <mxCell id="UbY_swUOJ2oPkTldAtvl-58" value="" style="endArrow=none;html=1;rounded=0;entryX=0;entryY=0.5;entryDx=0;entryDy=0;" edge="1" parent="1" target="UbY_swUOJ2oPkTldAtvl-38">
          <mxGeometry width="50" height="50" relative="1" as="geometry">
            <mxPoint x="500" y="200" as="sourcePoint" />
            <mxPoint x="360" y="330" as="targetPoint" />
          </mxGeometry>
        </mxCell>
        <mxCell id="UbY_swUOJ2oPkTldAtvl-59" value="" style="endArrow=none;html=1;rounded=0;" edge="1" parent="1">
          <mxGeometry width="50" height="50" relative="1" as="geometry">
            <mxPoint x="360" y="140" as="sourcePoint" />
            <mxPoint x="360" y="100" as="targetPoint" />
          </mxGeometry>
        </mxCell>
        <mxCell id="UbY_swUOJ2oPkTldAtvl-60" value="" style="endArrow=none;html=1;rounded=0;" edge="1" parent="1">
          <mxGeometry width="50" height="50" relative="1" as="geometry">
            <mxPoint x="440" y="180" as="sourcePoint" />
            <mxPoint x="439.43" y="100" as="targetPoint" />
          </mxGeometry>
        </mxCell>
        <mxCell id="UbY_swUOJ2oPkTldAtvl-61" value="" style="endArrow=none;html=1;rounded=0;" edge="1" parent="1">
          <mxGeometry width="50" height="50" relative="1" as="geometry">
            <mxPoint x="360" y="100" as="sourcePoint" />
            <mxPoint x="440" y="100" as="targetPoint" />
          </mxGeometry>
        </mxCell>
        <mxCell id="UbY_swUOJ2oPkTldAtvl-62" value="" style="endArrow=none;html=1;rounded=0;" edge="1" parent="1">
          <mxGeometry width="50" height="50" relative="1" as="geometry">
            <mxPoint x="440" y="720" as="sourcePoint" />
            <mxPoint x="440" y="700" as="targetPoint" />
          </mxGeometry>
        </mxCell>
        <mxCell id="UbY_swUOJ2oPkTldAtvl-63" value="" style="endArrow=none;html=1;rounded=0;" edge="1" parent="1">
          <mxGeometry width="50" height="50" relative="1" as="geometry">
            <mxPoint x="460" y="720" as="sourcePoint" />
            <mxPoint x="420" y="720" as="targetPoint" />
          </mxGeometry>
        </mxCell>
        <mxCell id="UbY_swUOJ2oPkTldAtvl-64" value="" style="endArrow=none;html=1;rounded=0;" edge="1" parent="1">
          <mxGeometry width="50" height="50" relative="1" as="geometry">
            <mxPoint x="450" y="730" as="sourcePoint" />
            <mxPoint x="430" y="730" as="targetPoint" />
          </mxGeometry>
        </mxCell>
        <mxCell id="UbY_swUOJ2oPkTldAtvl-65" value="" style="endArrow=none;html=1;rounded=0;" edge="1" parent="1">
          <mxGeometry width="50" height="50" relative="1" as="geometry">
            <mxPoint x="400" y="100" as="sourcePoint" />
            <mxPoint x="400" y="80" as="targetPoint" />
          </mxGeometry>
        </mxCell>
        <mxCell id="UbY_swUOJ2oPkTldAtvl-66" value="" style="endArrow=none;html=1;rounded=0;" edge="1" parent="1">
          <mxGeometry width="50" height="50" relative="1" as="geometry">
            <mxPoint x="420" y="80" as="sourcePoint" />
            <mxPoint x="380" y="80" as="targetPoint" />
          </mxGeometry>
        </mxCell>
        <mxCell id="UbY_swUOJ2oPkTldAtvl-67" value="A" style="text;html=1;align=center;verticalAlign=middle;whiteSpace=wrap;rounded=0;" vertex="1" parent="1">
          <mxGeometry x="280" y="150" width="20" height="20" as="geometry" />
        </mxCell>
        <mxCell id="UbY_swUOJ2oPkTldAtvl-68" value="B" style="text;html=1;align=center;verticalAlign=middle;whiteSpace=wrap;rounded=0;" vertex="1" parent="1">
          <mxGeometry x="280" y="230" width="20" height="20" as="geometry" />
        </mxCell>
        <mxCell id="UbY_swUOJ2oPkTldAtvl-69" value="C" style="text;html=1;align=center;verticalAlign=middle;whiteSpace=wrap;rounded=0;" vertex="1" parent="1">
          <mxGeometry x="500" y="190" width="20" height="20" as="geometry" />
        </mxCell>
        <mxCell id="UbY_swUOJ2oPkTldAtvl-70" value="A" style="text;html=1;align=center;verticalAlign=middle;whiteSpace=wrap;rounded=0;" vertex="1" parent="1">
          <mxGeometry x="240" y="510" width="20" height="20" as="geometry" />
        </mxCell>
        <mxCell id="UbY_swUOJ2oPkTldAtvl-71" value="C" style="text;html=1;align=center;verticalAlign=middle;whiteSpace=wrap;rounded=0;" vertex="1" parent="1">
          <mxGeometry x="280" y="630" width="20" height="20" as="geometry" />
        </mxCell>
        <mxCell id="UbY_swUOJ2oPkTldAtvl-72" value="B" style="text;html=1;align=center;verticalAlign=middle;whiteSpace=wrap;rounded=0;" vertex="1" parent="1">
          <mxGeometry x="460" y="510" width="20" height="20" as="geometry" />
        </mxCell>
        <mxCell id="UbY_swUOJ2oPkTldAtvl-73" value="Y" style="text;html=1;align=center;verticalAlign=middle;whiteSpace=wrap;rounded=0;" vertex="1" parent="1">
          <mxGeometry x="480" y="410" width="20" height="20" as="geometry" />
        </mxCell>
        <mxCell id="UbY_swUOJ2oPkTldAtvl-74" value="" style="endArrow=none;html=1;rounded=0;" edge="1" parent="1">
          <mxGeometry width="50" height="50" relative="1" as="geometry">
            <mxPoint x="399.72" y="500" as="sourcePoint" />
            <mxPoint x="399.72" y="460" as="targetPoint" />
          </mxGeometry>
        </mxCell>
        <mxCell id="UbY_swUOJ2oPkTldAtvl-75" value="" style="endArrow=none;html=1;rounded=0;" edge="1" parent="1">
          <mxGeometry width="50" height="50" relative="1" as="geometry">
            <mxPoint x="400" y="580" as="sourcePoint" />
            <mxPoint x="400" y="540" as="targetPoint" />
          </mxGeometry>
        </mxCell>
        <mxCell id="UbY_swUOJ2oPkTldAtvl-76" value="" style="endArrow=none;html=1;rounded=0;" edge="1" parent="1">
          <mxGeometry width="50" height="50" relative="1" as="geometry">
            <mxPoint x="359.52" y="660" as="sourcePoint" />
            <mxPoint x="329.52" y="660" as="targetPoint" />
          </mxGeometry>
        </mxCell>
        <mxCell id="UbY_swUOJ2oPkTldAtvl-77" value="" style="endArrow=none;html=1;rounded=0;" edge="1" parent="1">
          <mxGeometry width="50" height="50" relative="1" as="geometry">
            <mxPoint x="359.52" y="700" as="sourcePoint" />
            <mxPoint x="359.52" y="660" as="targetPoint" />
          </mxGeometry>
        </mxCell>
        <mxCell id="UbY_swUOJ2oPkTldAtvl-87" value="" style="group;rotation=-180;" vertex="1" connectable="0" parent="1">
          <mxGeometry x="520" y="560" width="40" height="40" as="geometry" />
        </mxCell>
        <mxCell id="UbY_swUOJ2oPkTldAtvl-88" value="" style="endArrow=none;html=1;rounded=0;" edge="1" parent="UbY_swUOJ2oPkTldAtvl-87">
          <mxGeometry width="50" height="50" relative="1" as="geometry">
            <mxPoint x="30" as="sourcePoint" />
            <mxPoint x="30" y="40" as="targetPoint" />
          </mxGeometry>
        </mxCell>
        <mxCell id="UbY_swUOJ2oPkTldAtvl-89" value="" style="endArrow=none;html=1;rounded=0;" edge="1" parent="UbY_swUOJ2oPkTldAtvl-87">
          <mxGeometry width="50" height="50" relative="1" as="geometry">
            <mxPoint x="40" as="sourcePoint" />
            <mxPoint x="40" y="40" as="targetPoint" />
          </mxGeometry>
        </mxCell>
        <mxCell id="UbY_swUOJ2oPkTldAtvl-90" value="" style="endArrow=none;html=1;rounded=0;" edge="1" parent="UbY_swUOJ2oPkTldAtvl-87">
          <mxGeometry width="50" height="50" relative="1" as="geometry">
            <mxPoint y="40" as="sourcePoint" />
            <mxPoint x="30" y="40" as="targetPoint" />
          </mxGeometry>
        </mxCell>
        <mxCell id="UbY_swUOJ2oPkTldAtvl-91" value="" style="endArrow=none;html=1;rounded=0;" edge="1" parent="UbY_swUOJ2oPkTldAtvl-87">
          <mxGeometry width="50" height="50" relative="1" as="geometry">
            <mxPoint as="sourcePoint" />
            <mxPoint x="30" as="targetPoint" />
          </mxGeometry>
        </mxCell>
        <mxCell id="UbY_swUOJ2oPkTldAtvl-92" value="" style="endArrow=none;html=1;rounded=0;" edge="1" parent="1">
          <mxGeometry width="50" height="50" relative="1" as="geometry">
            <mxPoint x="580" y="580" as="sourcePoint" />
            <mxPoint x="560" y="579.58" as="targetPoint" />
          </mxGeometry>
        </mxCell>
        <mxCell id="UbY_swUOJ2oPkTldAtvl-93" value="D" style="text;html=1;align=center;verticalAlign=middle;whiteSpace=wrap;rounded=0;" vertex="1" parent="1">
          <mxGeometry x="580" y="570" width="20" height="20" as="geometry" />
        </mxCell>
        <mxCell id="UbY_swUOJ2oPkTldAtvl-94" value="" style="endArrow=none;html=1;rounded=0;" edge="1" parent="1">
          <mxGeometry width="50" height="50" relative="1" as="geometry">
            <mxPoint x="520" y="700" as="sourcePoint" />
            <mxPoint x="360" y="700" as="targetPoint" />
          </mxGeometry>
        </mxCell>
        <mxCell id="UbY_swUOJ2oPkTldAtvl-95" value="" style="endArrow=none;html=1;rounded=0;" edge="1" parent="1">
          <mxGeometry width="50" height="50" relative="1" as="geometry">
            <mxPoint x="520" y="700" as="sourcePoint" />
            <mxPoint x="520" y="600" as="targetPoint" />
          </mxGeometry>
        </mxCell>
        <mxCell id="UbY_swUOJ2oPkTldAtvl-96" value="" style="endArrow=none;html=1;rounded=0;" edge="1" parent="1">
          <mxGeometry width="50" height="50" relative="1" as="geometry">
            <mxPoint x="520" y="560" as="sourcePoint" />
            <mxPoint x="520" y="460" as="targetPoint" />
          </mxGeometry>
        </mxCell>
        <mxCell id="UbY_swUOJ2oPkTldAtvl-97" value="" style="endArrow=none;html=1;rounded=0;" edge="1" parent="1">
          <mxGeometry width="50" height="50" relative="1" as="geometry">
            <mxPoint x="359.6" y="220" as="sourcePoint" />
            <mxPoint x="359.6" y="180" as="targetPoint" />
          </mxGeometry>
        </mxCell>
        <mxCell id="UbY_swUOJ2oPkTldAtvl-98" value="" style="endArrow=none;html=1;rounded=0;" edge="1" parent="1">
          <mxGeometry width="50" height="50" relative="1" as="geometry">
            <mxPoint x="440" y="300" as="sourcePoint" />
            <mxPoint x="360" y="300" as="targetPoint" />
          </mxGeometry>
        </mxCell>
        <mxCell id="UbY_swUOJ2oPkTldAtvl-99" value="" style="endArrow=none;html=1;rounded=0;" edge="1" parent="1">
          <mxGeometry width="50" height="50" relative="1" as="geometry">
            <mxPoint x="440" y="220" as="sourcePoint" />
            <mxPoint x="440" y="300" as="targetPoint" />
          </mxGeometry>
        </mxCell>
        <mxCell id="UbY_swUOJ2oPkTldAtvl-100" value="" style="endArrow=none;html=1;rounded=0;" edge="1" parent="1">
          <mxGeometry width="50" height="50" relative="1" as="geometry">
            <mxPoint x="360" y="260" as="sourcePoint" />
            <mxPoint x="360" y="300" as="targetPoint" />
          </mxGeometry>
        </mxCell>
        <mxCell id="UbY_swUOJ2oPkTldAtvl-101" value="" style="group" vertex="1" connectable="0" parent="1">
          <mxGeometry x="350" y="340" width="50" height="40" as="geometry" />
        </mxCell>
        <mxCell id="UbY_swUOJ2oPkTldAtvl-102" value="" style="endArrow=none;html=1;rounded=0;" edge="1" parent="UbY_swUOJ2oPkTldAtvl-101">
          <mxGeometry width="50" height="50" relative="1" as="geometry">
            <mxPoint x="20" y="40" as="sourcePoint" />
            <mxPoint x="20" as="targetPoint" />
          </mxGeometry>
        </mxCell>
        <mxCell id="UbY_swUOJ2oPkTldAtvl-103" value="" style="endArrow=none;html=1;rounded=0;" edge="1" parent="UbY_swUOJ2oPkTldAtvl-101">
          <mxGeometry width="50" height="50" relative="1" as="geometry">
            <mxPoint x="10" y="40" as="sourcePoint" />
            <mxPoint x="10" as="targetPoint" />
          </mxGeometry>
        </mxCell>
        <mxCell id="UbY_swUOJ2oPkTldAtvl-104" value="" style="endArrow=none;html=1;rounded=0;" edge="1" parent="UbY_swUOJ2oPkTldAtvl-101">
          <mxGeometry width="50" height="50" relative="1" as="geometry">
            <mxPoint x="50" as="sourcePoint" />
            <mxPoint x="20" as="targetPoint" />
          </mxGeometry>
        </mxCell>
        <mxCell id="UbY_swUOJ2oPkTldAtvl-105" value="" style="endArrow=none;html=1;rounded=0;" edge="1" parent="UbY_swUOJ2oPkTldAtvl-101">
          <mxGeometry width="50" height="50" relative="1" as="geometry">
            <mxPoint x="50" y="40" as="sourcePoint" />
            <mxPoint x="20" y="40" as="targetPoint" />
          </mxGeometry>
        </mxCell>
        <mxCell id="UbY_swUOJ2oPkTldAtvl-106" value="" style="ellipse;whiteSpace=wrap;html=1;aspect=fixed;" vertex="1" parent="UbY_swUOJ2oPkTldAtvl-101">
          <mxGeometry y="15" width="10" height="10" as="geometry" />
        </mxCell>
        <mxCell id="UbY_swUOJ2oPkTldAtvl-107" value="" style="endArrow=none;html=1;rounded=0;entryX=0;entryY=0.5;entryDx=0;entryDy=0;" edge="1" parent="1" target="UbY_swUOJ2oPkTldAtvl-106">
          <mxGeometry width="50" height="50" relative="1" as="geometry">
            <mxPoint x="340" y="360" as="sourcePoint" />
            <mxPoint x="500.9999999999998" y="241.0000000000001" as="targetPoint" />
          </mxGeometry>
        </mxCell>
        <mxCell id="UbY_swUOJ2oPkTldAtvl-108" value="D" style="text;html=1;align=center;verticalAlign=middle;whiteSpace=wrap;rounded=0;" vertex="1" parent="1">
          <mxGeometry x="320" y="350" width="20" height="20" as="geometry" />
        </mxCell>
        <mxCell id="UbY_swUOJ2oPkTldAtvl-109" value="" style="endArrow=none;html=1;rounded=0;" edge="1" parent="1">
          <mxGeometry width="50" height="50" relative="1" as="geometry">
            <mxPoint x="400" y="340" as="sourcePoint" />
            <mxPoint x="400" y="300" as="targetPoint" />
          </mxGeometry>
        </mxCell>
      </root>
    </mxGraphModel>
  </diagram>
  <diagram id="nAJSzDADNsZpH9XViIbc" name="problem2_pseudo_nmos">
    <mxGraphModel dx="473" dy="254" grid="1" gridSize="10" guides="1" tooltips="1" connect="1" arrows="1" fold="1" page="1" pageScale="1" pageWidth="850" pageHeight="1100" math="0" shadow="0">
      <root>
        <mxCell id="0" />
        <mxCell id="1" parent="0" />
        <mxCell id="rIxu-ePKBNnp4r9grwWz-1" value="" style="group" vertex="1" connectable="0" parent="1">
          <mxGeometry x="280" y="280" width="40" height="40" as="geometry" />
        </mxCell>
        <mxCell id="rIxu-ePKBNnp4r9grwWz-2" value="" style="endArrow=none;html=1;rounded=0;" edge="1" parent="rIxu-ePKBNnp4r9grwWz-1">
          <mxGeometry width="50" height="50" relative="1" as="geometry">
            <mxPoint x="10" y="40" as="sourcePoint" />
            <mxPoint x="10" as="targetPoint" />
          </mxGeometry>
        </mxCell>
        <mxCell id="rIxu-ePKBNnp4r9grwWz-3" value="" style="endArrow=none;html=1;rounded=0;" edge="1" parent="rIxu-ePKBNnp4r9grwWz-1">
          <mxGeometry width="50" height="50" relative="1" as="geometry">
            <mxPoint y="40" as="sourcePoint" />
            <mxPoint as="targetPoint" />
          </mxGeometry>
        </mxCell>
        <mxCell id="rIxu-ePKBNnp4r9grwWz-4" value="" style="endArrow=none;html=1;rounded=0;" edge="1" parent="rIxu-ePKBNnp4r9grwWz-1">
          <mxGeometry width="50" height="50" relative="1" as="geometry">
            <mxPoint x="40" as="sourcePoint" />
            <mxPoint x="10" as="targetPoint" />
          </mxGeometry>
        </mxCell>
        <mxCell id="rIxu-ePKBNnp4r9grwWz-5" value="" style="endArrow=none;html=1;rounded=0;" edge="1" parent="rIxu-ePKBNnp4r9grwWz-1">
          <mxGeometry width="50" height="50" relative="1" as="geometry">
            <mxPoint x="40" y="40" as="sourcePoint" />
            <mxPoint x="10" y="40" as="targetPoint" />
          </mxGeometry>
        </mxCell>
        <mxCell id="rIxu-ePKBNnp4r9grwWz-6" value="" style="group" vertex="1" connectable="0" parent="1">
          <mxGeometry x="320" y="400" width="40" height="40" as="geometry" />
        </mxCell>
        <mxCell id="rIxu-ePKBNnp4r9grwWz-7" value="" style="endArrow=none;html=1;rounded=0;" edge="1" parent="rIxu-ePKBNnp4r9grwWz-6">
          <mxGeometry width="50" height="50" relative="1" as="geometry">
            <mxPoint x="10" y="40" as="sourcePoint" />
            <mxPoint x="10" as="targetPoint" />
          </mxGeometry>
        </mxCell>
        <mxCell id="rIxu-ePKBNnp4r9grwWz-8" value="" style="endArrow=none;html=1;rounded=0;" edge="1" parent="rIxu-ePKBNnp4r9grwWz-6">
          <mxGeometry width="50" height="50" relative="1" as="geometry">
            <mxPoint y="40" as="sourcePoint" />
            <mxPoint as="targetPoint" />
          </mxGeometry>
        </mxCell>
        <mxCell id="rIxu-ePKBNnp4r9grwWz-9" value="" style="endArrow=none;html=1;rounded=0;" edge="1" parent="rIxu-ePKBNnp4r9grwWz-6">
          <mxGeometry width="50" height="50" relative="1" as="geometry">
            <mxPoint x="40" as="sourcePoint" />
            <mxPoint x="10" as="targetPoint" />
          </mxGeometry>
        </mxCell>
        <mxCell id="rIxu-ePKBNnp4r9grwWz-10" value="" style="group;rotation=-180;" vertex="1" connectable="0" parent="1">
          <mxGeometry x="400" y="280" width="40" height="40" as="geometry" />
        </mxCell>
        <mxCell id="rIxu-ePKBNnp4r9grwWz-11" value="" style="endArrow=none;html=1;rounded=0;" edge="1" parent="rIxu-ePKBNnp4r9grwWz-10">
          <mxGeometry width="50" height="50" relative="1" as="geometry">
            <mxPoint x="30" as="sourcePoint" />
            <mxPoint x="30" y="40" as="targetPoint" />
          </mxGeometry>
        </mxCell>
        <mxCell id="rIxu-ePKBNnp4r9grwWz-12" value="" style="endArrow=none;html=1;rounded=0;" edge="1" parent="rIxu-ePKBNnp4r9grwWz-10">
          <mxGeometry width="50" height="50" relative="1" as="geometry">
            <mxPoint x="40" as="sourcePoint" />
            <mxPoint x="40" y="40" as="targetPoint" />
          </mxGeometry>
        </mxCell>
        <mxCell id="rIxu-ePKBNnp4r9grwWz-13" value="" style="endArrow=none;html=1;rounded=0;" edge="1" parent="rIxu-ePKBNnp4r9grwWz-10">
          <mxGeometry width="50" height="50" relative="1" as="geometry">
            <mxPoint y="40" as="sourcePoint" />
            <mxPoint x="30" y="40" as="targetPoint" />
          </mxGeometry>
        </mxCell>
        <mxCell id="rIxu-ePKBNnp4r9grwWz-14" value="" style="endArrow=none;html=1;rounded=0;" edge="1" parent="rIxu-ePKBNnp4r9grwWz-10">
          <mxGeometry width="50" height="50" relative="1" as="geometry">
            <mxPoint as="sourcePoint" />
            <mxPoint x="30" as="targetPoint" />
          </mxGeometry>
        </mxCell>
        <mxCell id="rIxu-ePKBNnp4r9grwWz-33" value="" style="endArrow=none;html=1;rounded=0;" edge="1" parent="1">
          <mxGeometry width="50" height="50" relative="1" as="geometry">
            <mxPoint x="400" y="240" as="sourcePoint" />
            <mxPoint x="400" y="160" as="targetPoint" />
          </mxGeometry>
        </mxCell>
        <mxCell id="rIxu-ePKBNnp4r9grwWz-34" value="" style="endArrow=none;html=1;rounded=0;" edge="1" parent="1">
          <mxGeometry width="50" height="50" relative="1" as="geometry">
            <mxPoint x="520" y="240" as="sourcePoint" />
            <mxPoint x="320" y="240" as="targetPoint" />
          </mxGeometry>
        </mxCell>
        <mxCell id="rIxu-ePKBNnp4r9grwWz-35" value="" style="endArrow=none;html=1;rounded=0;" edge="1" parent="1">
          <mxGeometry width="50" height="50" relative="1" as="geometry">
            <mxPoint x="320" y="280" as="sourcePoint" />
            <mxPoint x="320" y="240" as="targetPoint" />
          </mxGeometry>
        </mxCell>
        <mxCell id="rIxu-ePKBNnp4r9grwWz-36" value="" style="endArrow=none;html=1;rounded=0;" edge="1" parent="1">
          <mxGeometry width="50" height="50" relative="1" as="geometry">
            <mxPoint x="320" y="360" as="sourcePoint" />
            <mxPoint x="320" y="320" as="targetPoint" />
          </mxGeometry>
        </mxCell>
        <mxCell id="rIxu-ePKBNnp4r9grwWz-37" value="" style="endArrow=none;html=1;rounded=0;" edge="1" parent="1">
          <mxGeometry width="50" height="50" relative="1" as="geometry">
            <mxPoint x="400" y="360" as="sourcePoint" />
            <mxPoint x="320" y="360" as="targetPoint" />
          </mxGeometry>
        </mxCell>
        <mxCell id="rIxu-ePKBNnp4r9grwWz-38" value="" style="endArrow=none;html=1;rounded=0;" edge="1" parent="1">
          <mxGeometry width="50" height="50" relative="1" as="geometry">
            <mxPoint x="359.72" y="400" as="sourcePoint" />
            <mxPoint x="359.72" y="360" as="targetPoint" />
          </mxGeometry>
        </mxCell>
        <mxCell id="rIxu-ePKBNnp4r9grwWz-39" value="" style="endArrow=none;html=1;rounded=0;" edge="1" parent="1">
          <mxGeometry width="50" height="50" relative="1" as="geometry">
            <mxPoint x="480" y="200" as="sourcePoint" />
            <mxPoint x="400" y="200" as="targetPoint" />
          </mxGeometry>
        </mxCell>
        <mxCell id="rIxu-ePKBNnp4r9grwWz-40" value="" style="endArrow=none;html=1;rounded=0;" edge="1" parent="1">
          <mxGeometry width="50" height="50" relative="1" as="geometry">
            <mxPoint x="460" y="300" as="sourcePoint" />
            <mxPoint x="440" y="300" as="targetPoint" />
          </mxGeometry>
        </mxCell>
        <mxCell id="rIxu-ePKBNnp4r9grwWz-41" value="" style="endArrow=none;html=1;rounded=0;" edge="1" parent="1">
          <mxGeometry width="50" height="50" relative="1" as="geometry">
            <mxPoint x="300" y="420" as="sourcePoint" />
            <mxPoint x="320" y="420" as="targetPoint" />
          </mxGeometry>
        </mxCell>
        <mxCell id="rIxu-ePKBNnp4r9grwWz-42" value="" style="endArrow=none;html=1;rounded=0;" edge="1" parent="1">
          <mxGeometry width="50" height="50" relative="1" as="geometry">
            <mxPoint x="260" y="300" as="sourcePoint" />
            <mxPoint x="280" y="300" as="targetPoint" />
          </mxGeometry>
        </mxCell>
        <mxCell id="rIxu-ePKBNnp4r9grwWz-49" value="" style="endArrow=none;html=1;rounded=0;" edge="1" parent="1">
          <mxGeometry width="50" height="50" relative="1" as="geometry">
            <mxPoint x="440" y="500" as="sourcePoint" />
            <mxPoint x="440" y="480" as="targetPoint" />
          </mxGeometry>
        </mxCell>
        <mxCell id="rIxu-ePKBNnp4r9grwWz-50" value="" style="endArrow=none;html=1;rounded=0;" edge="1" parent="1">
          <mxGeometry width="50" height="50" relative="1" as="geometry">
            <mxPoint x="460" y="500" as="sourcePoint" />
            <mxPoint x="420" y="500" as="targetPoint" />
          </mxGeometry>
        </mxCell>
        <mxCell id="rIxu-ePKBNnp4r9grwWz-51" value="" style="endArrow=none;html=1;rounded=0;" edge="1" parent="1">
          <mxGeometry width="50" height="50" relative="1" as="geometry">
            <mxPoint x="450" y="510" as="sourcePoint" />
            <mxPoint x="430" y="510" as="targetPoint" />
          </mxGeometry>
        </mxCell>
        <mxCell id="rIxu-ePKBNnp4r9grwWz-53" value="" style="endArrow=none;html=1;rounded=0;" edge="1" parent="1">
          <mxGeometry width="50" height="50" relative="1" as="geometry">
            <mxPoint x="420" y="80" as="sourcePoint" />
            <mxPoint x="380" y="80" as="targetPoint" />
          </mxGeometry>
        </mxCell>
        <mxCell id="rIxu-ePKBNnp4r9grwWz-57" value="A" style="text;html=1;align=center;verticalAlign=middle;whiteSpace=wrap;rounded=0;" vertex="1" parent="1">
          <mxGeometry x="240" y="290" width="20" height="20" as="geometry" />
        </mxCell>
        <mxCell id="rIxu-ePKBNnp4r9grwWz-58" value="C" style="text;html=1;align=center;verticalAlign=middle;whiteSpace=wrap;rounded=0;" vertex="1" parent="1">
          <mxGeometry x="280" y="410" width="20" height="20" as="geometry" />
        </mxCell>
        <mxCell id="rIxu-ePKBNnp4r9grwWz-59" value="B" style="text;html=1;align=center;verticalAlign=middle;whiteSpace=wrap;rounded=0;" vertex="1" parent="1">
          <mxGeometry x="460" y="290" width="20" height="20" as="geometry" />
        </mxCell>
        <mxCell id="rIxu-ePKBNnp4r9grwWz-60" value="Y" style="text;html=1;align=center;verticalAlign=middle;whiteSpace=wrap;rounded=0;" vertex="1" parent="1">
          <mxGeometry x="480" y="190" width="20" height="20" as="geometry" />
        </mxCell>
        <mxCell id="rIxu-ePKBNnp4r9grwWz-61" value="" style="endArrow=none;html=1;rounded=0;" edge="1" parent="1">
          <mxGeometry width="50" height="50" relative="1" as="geometry">
            <mxPoint x="399.72" y="280" as="sourcePoint" />
            <mxPoint x="399.72" y="240" as="targetPoint" />
          </mxGeometry>
        </mxCell>
        <mxCell id="rIxu-ePKBNnp4r9grwWz-62" value="" style="endArrow=none;html=1;rounded=0;" edge="1" parent="1">
          <mxGeometry width="50" height="50" relative="1" as="geometry">
            <mxPoint x="400" y="360" as="sourcePoint" />
            <mxPoint x="400" y="320" as="targetPoint" />
          </mxGeometry>
        </mxCell>
        <mxCell id="rIxu-ePKBNnp4r9grwWz-63" value="" style="endArrow=none;html=1;rounded=0;" edge="1" parent="1">
          <mxGeometry width="50" height="50" relative="1" as="geometry">
            <mxPoint x="359.52" y="440" as="sourcePoint" />
            <mxPoint x="329.52" y="440" as="targetPoint" />
          </mxGeometry>
        </mxCell>
        <mxCell id="rIxu-ePKBNnp4r9grwWz-64" value="" style="endArrow=none;html=1;rounded=0;" edge="1" parent="1">
          <mxGeometry width="50" height="50" relative="1" as="geometry">
            <mxPoint x="359.52" y="480" as="sourcePoint" />
            <mxPoint x="359.52" y="440" as="targetPoint" />
          </mxGeometry>
        </mxCell>
        <mxCell id="rIxu-ePKBNnp4r9grwWz-65" value="" style="group;rotation=-180;" vertex="1" connectable="0" parent="1">
          <mxGeometry x="520" y="340" width="40" height="40" as="geometry" />
        </mxCell>
        <mxCell id="rIxu-ePKBNnp4r9grwWz-66" value="" style="endArrow=none;html=1;rounded=0;" edge="1" parent="rIxu-ePKBNnp4r9grwWz-65">
          <mxGeometry width="50" height="50" relative="1" as="geometry">
            <mxPoint x="30" as="sourcePoint" />
            <mxPoint x="30" y="40" as="targetPoint" />
          </mxGeometry>
        </mxCell>
        <mxCell id="rIxu-ePKBNnp4r9grwWz-67" value="" style="endArrow=none;html=1;rounded=0;" edge="1" parent="rIxu-ePKBNnp4r9grwWz-65">
          <mxGeometry width="50" height="50" relative="1" as="geometry">
            <mxPoint x="40" as="sourcePoint" />
            <mxPoint x="40" y="40" as="targetPoint" />
          </mxGeometry>
        </mxCell>
        <mxCell id="rIxu-ePKBNnp4r9grwWz-68" value="" style="endArrow=none;html=1;rounded=0;" edge="1" parent="rIxu-ePKBNnp4r9grwWz-65">
          <mxGeometry width="50" height="50" relative="1" as="geometry">
            <mxPoint y="40" as="sourcePoint" />
            <mxPoint x="30" y="40" as="targetPoint" />
          </mxGeometry>
        </mxCell>
        <mxCell id="rIxu-ePKBNnp4r9grwWz-69" value="" style="endArrow=none;html=1;rounded=0;" edge="1" parent="rIxu-ePKBNnp4r9grwWz-65">
          <mxGeometry width="50" height="50" relative="1" as="geometry">
            <mxPoint as="sourcePoint" />
            <mxPoint x="30" as="targetPoint" />
          </mxGeometry>
        </mxCell>
        <mxCell id="rIxu-ePKBNnp4r9grwWz-70" value="" style="endArrow=none;html=1;rounded=0;" edge="1" parent="1">
          <mxGeometry width="50" height="50" relative="1" as="geometry">
            <mxPoint x="580" y="360" as="sourcePoint" />
            <mxPoint x="560" y="359.58000000000004" as="targetPoint" />
          </mxGeometry>
        </mxCell>
        <mxCell id="rIxu-ePKBNnp4r9grwWz-71" value="D" style="text;html=1;align=center;verticalAlign=middle;whiteSpace=wrap;rounded=0;" vertex="1" parent="1">
          <mxGeometry x="580" y="350" width="20" height="20" as="geometry" />
        </mxCell>
        <mxCell id="rIxu-ePKBNnp4r9grwWz-72" value="" style="endArrow=none;html=1;rounded=0;" edge="1" parent="1">
          <mxGeometry width="50" height="50" relative="1" as="geometry">
            <mxPoint x="520" y="480" as="sourcePoint" />
            <mxPoint x="360" y="480" as="targetPoint" />
          </mxGeometry>
        </mxCell>
        <mxCell id="rIxu-ePKBNnp4r9grwWz-73" value="" style="endArrow=none;html=1;rounded=0;" edge="1" parent="1">
          <mxGeometry width="50" height="50" relative="1" as="geometry">
            <mxPoint x="520" y="480" as="sourcePoint" />
            <mxPoint x="520" y="380" as="targetPoint" />
          </mxGeometry>
        </mxCell>
        <mxCell id="rIxu-ePKBNnp4r9grwWz-74" value="" style="endArrow=none;html=1;rounded=0;" edge="1" parent="1">
          <mxGeometry width="50" height="50" relative="1" as="geometry">
            <mxPoint x="520" y="340" as="sourcePoint" />
            <mxPoint x="520" y="240" as="targetPoint" />
          </mxGeometry>
        </mxCell>
        <mxCell id="rIxu-ePKBNnp4r9grwWz-79" value="" style="group" vertex="1" connectable="0" parent="1">
          <mxGeometry x="350" y="120" width="50" height="40" as="geometry" />
        </mxCell>
        <mxCell id="rIxu-ePKBNnp4r9grwWz-80" value="" style="endArrow=none;html=1;rounded=0;" edge="1" parent="rIxu-ePKBNnp4r9grwWz-79">
          <mxGeometry width="50" height="50" relative="1" as="geometry">
            <mxPoint x="20" y="40" as="sourcePoint" />
            <mxPoint x="20" as="targetPoint" />
          </mxGeometry>
        </mxCell>
        <mxCell id="rIxu-ePKBNnp4r9grwWz-81" value="" style="endArrow=none;html=1;rounded=0;" edge="1" parent="rIxu-ePKBNnp4r9grwWz-79">
          <mxGeometry width="50" height="50" relative="1" as="geometry">
            <mxPoint x="10" y="40" as="sourcePoint" />
            <mxPoint x="10" as="targetPoint" />
          </mxGeometry>
        </mxCell>
        <mxCell id="rIxu-ePKBNnp4r9grwWz-82" value="" style="endArrow=none;html=1;rounded=0;" edge="1" parent="rIxu-ePKBNnp4r9grwWz-79">
          <mxGeometry width="50" height="50" relative="1" as="geometry">
            <mxPoint x="50" as="sourcePoint" />
            <mxPoint x="20" as="targetPoint" />
          </mxGeometry>
        </mxCell>
        <mxCell id="rIxu-ePKBNnp4r9grwWz-83" value="" style="endArrow=none;html=1;rounded=0;" edge="1" parent="rIxu-ePKBNnp4r9grwWz-79">
          <mxGeometry width="50" height="50" relative="1" as="geometry">
            <mxPoint x="50" y="40" as="sourcePoint" />
            <mxPoint x="20" y="40" as="targetPoint" />
          </mxGeometry>
        </mxCell>
        <mxCell id="rIxu-ePKBNnp4r9grwWz-84" value="" style="ellipse;whiteSpace=wrap;html=1;aspect=fixed;" vertex="1" parent="rIxu-ePKBNnp4r9grwWz-79">
          <mxGeometry y="15" width="10" height="10" as="geometry" />
        </mxCell>
        <mxCell id="rIxu-ePKBNnp4r9grwWz-85" value="" style="endArrow=none;html=1;rounded=0;entryX=0;entryY=0.5;entryDx=0;entryDy=0;" edge="1" parent="1" target="rIxu-ePKBNnp4r9grwWz-84">
          <mxGeometry width="50" height="50" relative="1" as="geometry">
            <mxPoint x="320" y="140" as="sourcePoint" />
            <mxPoint x="500.9999999999998" y="21.000000000000114" as="targetPoint" />
          </mxGeometry>
        </mxCell>
        <mxCell id="rIxu-ePKBNnp4r9grwWz-87" value="" style="endArrow=none;html=1;rounded=0;" edge="1" parent="1">
          <mxGeometry width="50" height="50" relative="1" as="geometry">
            <mxPoint x="400" y="120" as="sourcePoint" />
            <mxPoint x="400" y="80" as="targetPoint" />
          </mxGeometry>
        </mxCell>
        <mxCell id="rIxu-ePKBNnp4r9grwWz-88" value="" style="endArrow=none;html=1;rounded=0;" edge="1" parent="1">
          <mxGeometry width="50" height="50" relative="1" as="geometry">
            <mxPoint x="320" y="179.43" as="sourcePoint" />
            <mxPoint x="320" y="140" as="targetPoint" />
          </mxGeometry>
        </mxCell>
        <mxCell id="rIxu-ePKBNnp4r9grwWz-89" value="" style="endArrow=none;html=1;rounded=0;" edge="1" parent="1">
          <mxGeometry width="50" height="50" relative="1" as="geometry">
            <mxPoint x="340" y="179.43" as="sourcePoint" />
            <mxPoint x="300" y="179.43" as="targetPoint" />
          </mxGeometry>
        </mxCell>
        <mxCell id="rIxu-ePKBNnp4r9grwWz-90" value="" style="endArrow=none;html=1;rounded=0;" edge="1" parent="1">
          <mxGeometry width="50" height="50" relative="1" as="geometry">
            <mxPoint x="330" y="189.43" as="sourcePoint" />
            <mxPoint x="310" y="189.43" as="targetPoint" />
          </mxGeometry>
        </mxCell>
      </root>
    </mxGraphModel>
  </diagram>
  <diagram name="circuit4a" id="3DtSC29LpzF9sRXxUmHe">
    <mxGraphModel dx="2057" dy="1104" grid="1" gridSize="10" guides="1" tooltips="1" connect="1" arrows="1" fold="1" page="1" pageScale="1" pageWidth="850" pageHeight="1100" math="0" shadow="0">
      <root>
        <mxCell id="0" />
        <mxCell id="1" parent="0" />
        <mxCell id="mSR1EGi9H52Qq8BrN1vQ-5" value="" style="group" parent="1" vertex="1" connectable="0">
          <mxGeometry x="280" y="400" width="40" height="40" as="geometry" />
        </mxCell>
        <mxCell id="mSR1EGi9H52Qq8BrN1vQ-1" value="" style="endArrow=none;html=1;rounded=0;" parent="mSR1EGi9H52Qq8BrN1vQ-5" edge="1">
          <mxGeometry width="50" height="50" relative="1" as="geometry">
            <mxPoint x="10" y="40" as="sourcePoint" />
            <mxPoint x="10" as="targetPoint" />
          </mxGeometry>
        </mxCell>
        <mxCell id="mSR1EGi9H52Qq8BrN1vQ-2" value="" style="endArrow=none;html=1;rounded=0;" parent="mSR1EGi9H52Qq8BrN1vQ-5" edge="1">
          <mxGeometry width="50" height="50" relative="1" as="geometry">
            <mxPoint y="40" as="sourcePoint" />
            <mxPoint as="targetPoint" />
          </mxGeometry>
        </mxCell>
        <mxCell id="mSR1EGi9H52Qq8BrN1vQ-3" value="" style="endArrow=none;html=1;rounded=0;" parent="mSR1EGi9H52Qq8BrN1vQ-5" edge="1">
          <mxGeometry width="50" height="50" relative="1" as="geometry">
            <mxPoint x="40" as="sourcePoint" />
            <mxPoint x="10" as="targetPoint" />
          </mxGeometry>
        </mxCell>
        <mxCell id="mSR1EGi9H52Qq8BrN1vQ-4" value="" style="endArrow=none;html=1;rounded=0;" parent="mSR1EGi9H52Qq8BrN1vQ-5" edge="1">
          <mxGeometry width="50" height="50" relative="1" as="geometry">
            <mxPoint x="40" y="40" as="sourcePoint" />
            <mxPoint x="10" y="40" as="targetPoint" />
          </mxGeometry>
        </mxCell>
        <mxCell id="mSR1EGi9H52Qq8BrN1vQ-74" value="2" style="text;html=1;align=center;verticalAlign=middle;whiteSpace=wrap;rounded=0;" parent="mSR1EGi9H52Qq8BrN1vQ-5" vertex="1">
          <mxGeometry x="10" y="10" width="30" height="20" as="geometry" />
        </mxCell>
        <mxCell id="mSR1EGi9H52Qq8BrN1vQ-6" value="" style="group" parent="1" vertex="1" connectable="0">
          <mxGeometry x="280" y="480" width="40" height="40" as="geometry" />
        </mxCell>
        <mxCell id="mSR1EGi9H52Qq8BrN1vQ-7" value="" style="endArrow=none;html=1;rounded=0;" parent="mSR1EGi9H52Qq8BrN1vQ-6" edge="1">
          <mxGeometry width="50" height="50" relative="1" as="geometry">
            <mxPoint x="10" y="40" as="sourcePoint" />
            <mxPoint x="10" as="targetPoint" />
          </mxGeometry>
        </mxCell>
        <mxCell id="mSR1EGi9H52Qq8BrN1vQ-8" value="" style="endArrow=none;html=1;rounded=0;" parent="mSR1EGi9H52Qq8BrN1vQ-6" edge="1">
          <mxGeometry width="50" height="50" relative="1" as="geometry">
            <mxPoint y="40" as="sourcePoint" />
            <mxPoint as="targetPoint" />
          </mxGeometry>
        </mxCell>
        <mxCell id="mSR1EGi9H52Qq8BrN1vQ-9" value="" style="endArrow=none;html=1;rounded=0;" parent="mSR1EGi9H52Qq8BrN1vQ-6" edge="1">
          <mxGeometry width="50" height="50" relative="1" as="geometry">
            <mxPoint x="40" as="sourcePoint" />
            <mxPoint x="10" as="targetPoint" />
          </mxGeometry>
        </mxCell>
        <mxCell id="mSR1EGi9H52Qq8BrN1vQ-10" value="" style="endArrow=none;html=1;rounded=0;" parent="mSR1EGi9H52Qq8BrN1vQ-6" edge="1">
          <mxGeometry width="50" height="50" relative="1" as="geometry">
            <mxPoint x="40" y="40" as="sourcePoint" />
            <mxPoint x="10" y="40" as="targetPoint" />
          </mxGeometry>
        </mxCell>
        <mxCell id="mSR1EGi9H52Qq8BrN1vQ-75" value="2" style="text;html=1;align=center;verticalAlign=middle;whiteSpace=wrap;rounded=0;" parent="mSR1EGi9H52Qq8BrN1vQ-6" vertex="1">
          <mxGeometry x="10" y="10" width="30" height="20" as="geometry" />
        </mxCell>
        <mxCell id="mSR1EGi9H52Qq8BrN1vQ-11" value="" style="group;rotation=-180;" parent="1" vertex="1" connectable="0">
          <mxGeometry x="400" y="440" width="40" height="40" as="geometry" />
        </mxCell>
        <mxCell id="mSR1EGi9H52Qq8BrN1vQ-12" value="" style="endArrow=none;html=1;rounded=0;" parent="mSR1EGi9H52Qq8BrN1vQ-11" edge="1">
          <mxGeometry width="50" height="50" relative="1" as="geometry">
            <mxPoint x="30" as="sourcePoint" />
            <mxPoint x="30" y="40" as="targetPoint" />
          </mxGeometry>
        </mxCell>
        <mxCell id="mSR1EGi9H52Qq8BrN1vQ-13" value="" style="endArrow=none;html=1;rounded=0;" parent="mSR1EGi9H52Qq8BrN1vQ-11" edge="1">
          <mxGeometry width="50" height="50" relative="1" as="geometry">
            <mxPoint x="40" as="sourcePoint" />
            <mxPoint x="40" y="40" as="targetPoint" />
          </mxGeometry>
        </mxCell>
        <mxCell id="mSR1EGi9H52Qq8BrN1vQ-14" value="" style="endArrow=none;html=1;rounded=0;" parent="mSR1EGi9H52Qq8BrN1vQ-11" edge="1">
          <mxGeometry width="50" height="50" relative="1" as="geometry">
            <mxPoint y="40" as="sourcePoint" />
            <mxPoint x="30" y="40" as="targetPoint" />
          </mxGeometry>
        </mxCell>
        <mxCell id="mSR1EGi9H52Qq8BrN1vQ-15" value="" style="endArrow=none;html=1;rounded=0;" parent="mSR1EGi9H52Qq8BrN1vQ-11" edge="1">
          <mxGeometry width="50" height="50" relative="1" as="geometry">
            <mxPoint as="sourcePoint" />
            <mxPoint x="30" as="targetPoint" />
          </mxGeometry>
        </mxCell>
        <mxCell id="mSR1EGi9H52Qq8BrN1vQ-76" value="1" style="text;html=1;align=center;verticalAlign=middle;whiteSpace=wrap;rounded=0;" parent="mSR1EGi9H52Qq8BrN1vQ-11" vertex="1">
          <mxGeometry y="10" width="30" height="20" as="geometry" />
        </mxCell>
        <mxCell id="mSR1EGi9H52Qq8BrN1vQ-24" value="" style="group" parent="1" vertex="1" connectable="0">
          <mxGeometry x="310" y="240" width="50" height="40" as="geometry" />
        </mxCell>
        <mxCell id="mSR1EGi9H52Qq8BrN1vQ-17" value="" style="endArrow=none;html=1;rounded=0;" parent="mSR1EGi9H52Qq8BrN1vQ-24" edge="1">
          <mxGeometry width="50" height="50" relative="1" as="geometry">
            <mxPoint x="20" y="40" as="sourcePoint" />
            <mxPoint x="20" as="targetPoint" />
          </mxGeometry>
        </mxCell>
        <mxCell id="mSR1EGi9H52Qq8BrN1vQ-18" value="" style="endArrow=none;html=1;rounded=0;" parent="mSR1EGi9H52Qq8BrN1vQ-24" edge="1">
          <mxGeometry width="50" height="50" relative="1" as="geometry">
            <mxPoint x="10" y="40" as="sourcePoint" />
            <mxPoint x="10" as="targetPoint" />
          </mxGeometry>
        </mxCell>
        <mxCell id="mSR1EGi9H52Qq8BrN1vQ-19" value="" style="endArrow=none;html=1;rounded=0;" parent="mSR1EGi9H52Qq8BrN1vQ-24" edge="1">
          <mxGeometry width="50" height="50" relative="1" as="geometry">
            <mxPoint x="50" as="sourcePoint" />
            <mxPoint x="20" as="targetPoint" />
          </mxGeometry>
        </mxCell>
        <mxCell id="mSR1EGi9H52Qq8BrN1vQ-20" value="" style="endArrow=none;html=1;rounded=0;" parent="mSR1EGi9H52Qq8BrN1vQ-24" edge="1">
          <mxGeometry width="50" height="50" relative="1" as="geometry">
            <mxPoint x="50" y="40" as="sourcePoint" />
            <mxPoint x="20" y="40" as="targetPoint" />
          </mxGeometry>
        </mxCell>
        <mxCell id="mSR1EGi9H52Qq8BrN1vQ-22" value="" style="ellipse;whiteSpace=wrap;html=1;aspect=fixed;" parent="mSR1EGi9H52Qq8BrN1vQ-24" vertex="1">
          <mxGeometry y="15" width="10" height="10" as="geometry" />
        </mxCell>
        <mxCell id="mSR1EGi9H52Qq8BrN1vQ-73" value="4" style="text;html=1;align=center;verticalAlign=middle;whiteSpace=wrap;rounded=0;" parent="mSR1EGi9H52Qq8BrN1vQ-24" vertex="1">
          <mxGeometry x="20" y="10" width="30" height="20" as="geometry" />
        </mxCell>
        <mxCell id="mSR1EGi9H52Qq8BrN1vQ-25" value="" style="group" parent="1" vertex="1" connectable="0">
          <mxGeometry x="270" y="120" width="50" height="40" as="geometry" />
        </mxCell>
        <mxCell id="mSR1EGi9H52Qq8BrN1vQ-26" value="" style="endArrow=none;html=1;rounded=0;" parent="mSR1EGi9H52Qq8BrN1vQ-25" edge="1">
          <mxGeometry width="50" height="50" relative="1" as="geometry">
            <mxPoint x="20" y="40" as="sourcePoint" />
            <mxPoint x="20" as="targetPoint" />
          </mxGeometry>
        </mxCell>
        <mxCell id="mSR1EGi9H52Qq8BrN1vQ-27" value="" style="endArrow=none;html=1;rounded=0;" parent="mSR1EGi9H52Qq8BrN1vQ-25" edge="1">
          <mxGeometry width="50" height="50" relative="1" as="geometry">
            <mxPoint x="10" y="40" as="sourcePoint" />
            <mxPoint x="10" as="targetPoint" />
          </mxGeometry>
        </mxCell>
        <mxCell id="mSR1EGi9H52Qq8BrN1vQ-28" value="" style="endArrow=none;html=1;rounded=0;" parent="mSR1EGi9H52Qq8BrN1vQ-25" edge="1">
          <mxGeometry width="50" height="50" relative="1" as="geometry">
            <mxPoint x="50" as="sourcePoint" />
            <mxPoint x="20" as="targetPoint" />
          </mxGeometry>
        </mxCell>
        <mxCell id="mSR1EGi9H52Qq8BrN1vQ-29" value="" style="endArrow=none;html=1;rounded=0;" parent="mSR1EGi9H52Qq8BrN1vQ-25" edge="1">
          <mxGeometry width="50" height="50" relative="1" as="geometry">
            <mxPoint x="50" y="40" as="sourcePoint" />
            <mxPoint x="20" y="40" as="targetPoint" />
          </mxGeometry>
        </mxCell>
        <mxCell id="mSR1EGi9H52Qq8BrN1vQ-30" value="" style="ellipse;whiteSpace=wrap;html=1;aspect=fixed;" parent="mSR1EGi9H52Qq8BrN1vQ-25" vertex="1">
          <mxGeometry y="15" width="10" height="10" as="geometry" />
        </mxCell>
        <mxCell id="mSR1EGi9H52Qq8BrN1vQ-71" value="4" style="text;html=1;align=center;verticalAlign=middle;whiteSpace=wrap;rounded=0;" parent="mSR1EGi9H52Qq8BrN1vQ-25" vertex="1">
          <mxGeometry x="20" y="10" width="30" height="20" as="geometry" />
        </mxCell>
        <mxCell id="mSR1EGi9H52Qq8BrN1vQ-31" value="" style="group;rotation=-180;" parent="1" vertex="1" connectable="0">
          <mxGeometry x="400" y="120" width="50" height="40" as="geometry" />
        </mxCell>
        <mxCell id="mSR1EGi9H52Qq8BrN1vQ-32" value="" style="endArrow=none;html=1;rounded=0;" parent="mSR1EGi9H52Qq8BrN1vQ-31" edge="1">
          <mxGeometry width="50" height="50" relative="1" as="geometry">
            <mxPoint x="30" as="sourcePoint" />
            <mxPoint x="30" y="40" as="targetPoint" />
          </mxGeometry>
        </mxCell>
        <mxCell id="mSR1EGi9H52Qq8BrN1vQ-33" value="" style="endArrow=none;html=1;rounded=0;" parent="mSR1EGi9H52Qq8BrN1vQ-31" edge="1">
          <mxGeometry width="50" height="50" relative="1" as="geometry">
            <mxPoint x="40" as="sourcePoint" />
            <mxPoint x="40" y="40" as="targetPoint" />
          </mxGeometry>
        </mxCell>
        <mxCell id="mSR1EGi9H52Qq8BrN1vQ-34" value="" style="endArrow=none;html=1;rounded=0;" parent="mSR1EGi9H52Qq8BrN1vQ-31" edge="1">
          <mxGeometry width="50" height="50" relative="1" as="geometry">
            <mxPoint y="40" as="sourcePoint" />
            <mxPoint x="30" y="40" as="targetPoint" />
          </mxGeometry>
        </mxCell>
        <mxCell id="mSR1EGi9H52Qq8BrN1vQ-35" value="" style="endArrow=none;html=1;rounded=0;" parent="mSR1EGi9H52Qq8BrN1vQ-31" edge="1">
          <mxGeometry width="50" height="50" relative="1" as="geometry">
            <mxPoint as="sourcePoint" />
            <mxPoint x="30" as="targetPoint" />
          </mxGeometry>
        </mxCell>
        <mxCell id="mSR1EGi9H52Qq8BrN1vQ-36" value="" style="ellipse;whiteSpace=wrap;html=1;aspect=fixed;rotation=-180;" parent="mSR1EGi9H52Qq8BrN1vQ-31" vertex="1">
          <mxGeometry x="40" y="15" width="10" height="10" as="geometry" />
        </mxCell>
        <mxCell id="mSR1EGi9H52Qq8BrN1vQ-72" value="4" style="text;html=1;align=center;verticalAlign=middle;whiteSpace=wrap;rounded=0;" parent="mSR1EGi9H52Qq8BrN1vQ-31" vertex="1">
          <mxGeometry y="10" width="30" height="20" as="geometry" />
        </mxCell>
        <mxCell id="mSR1EGi9H52Qq8BrN1vQ-37" value="" style="endArrow=none;html=1;rounded=0;" parent="1" edge="1">
          <mxGeometry width="50" height="50" relative="1" as="geometry">
            <mxPoint x="320" y="200" as="sourcePoint" />
            <mxPoint x="400" y="200" as="targetPoint" />
          </mxGeometry>
        </mxCell>
        <mxCell id="mSR1EGi9H52Qq8BrN1vQ-38" value="" style="endArrow=none;html=1;rounded=0;" parent="1" edge="1">
          <mxGeometry width="50" height="50" relative="1" as="geometry">
            <mxPoint x="320" y="200" as="sourcePoint" />
            <mxPoint x="320" y="160" as="targetPoint" />
          </mxGeometry>
        </mxCell>
        <mxCell id="mSR1EGi9H52Qq8BrN1vQ-39" value="" style="endArrow=none;html=1;rounded=0;" parent="1" edge="1">
          <mxGeometry width="50" height="50" relative="1" as="geometry">
            <mxPoint x="400" y="200" as="sourcePoint" />
            <mxPoint x="400" y="160" as="targetPoint" />
          </mxGeometry>
        </mxCell>
        <mxCell id="mSR1EGi9H52Qq8BrN1vQ-40" value="" style="endArrow=none;html=1;rounded=0;" parent="1" edge="1">
          <mxGeometry width="50" height="50" relative="1" as="geometry">
            <mxPoint x="360" y="240" as="sourcePoint" />
            <mxPoint x="360" y="200" as="targetPoint" />
          </mxGeometry>
        </mxCell>
        <mxCell id="mSR1EGi9H52Qq8BrN1vQ-41" value="" style="endArrow=none;html=1;rounded=0;" parent="1" edge="1">
          <mxGeometry width="50" height="50" relative="1" as="geometry">
            <mxPoint x="360" y="360" as="sourcePoint" />
            <mxPoint x="360" y="280" as="targetPoint" />
          </mxGeometry>
        </mxCell>
        <mxCell id="mSR1EGi9H52Qq8BrN1vQ-42" value="" style="endArrow=none;html=1;rounded=0;" parent="1" edge="1">
          <mxGeometry width="50" height="50" relative="1" as="geometry">
            <mxPoint x="400" y="360" as="sourcePoint" />
            <mxPoint x="320" y="360" as="targetPoint" />
          </mxGeometry>
        </mxCell>
        <mxCell id="mSR1EGi9H52Qq8BrN1vQ-43" value="" style="endArrow=none;html=1;rounded=0;" parent="1" edge="1">
          <mxGeometry width="50" height="50" relative="1" as="geometry">
            <mxPoint x="320" y="400" as="sourcePoint" />
            <mxPoint x="320" y="360" as="targetPoint" />
          </mxGeometry>
        </mxCell>
        <mxCell id="mSR1EGi9H52Qq8BrN1vQ-44" value="" style="endArrow=none;html=1;rounded=0;" parent="1" edge="1">
          <mxGeometry width="50" height="50" relative="1" as="geometry">
            <mxPoint x="400" y="440" as="sourcePoint" />
            <mxPoint x="400" y="360" as="targetPoint" />
          </mxGeometry>
        </mxCell>
        <mxCell id="mSR1EGi9H52Qq8BrN1vQ-45" value="" style="endArrow=none;html=1;rounded=0;" parent="1" edge="1">
          <mxGeometry width="50" height="50" relative="1" as="geometry">
            <mxPoint x="320" y="480" as="sourcePoint" />
            <mxPoint x="320" y="440" as="targetPoint" />
          </mxGeometry>
        </mxCell>
        <mxCell id="mSR1EGi9H52Qq8BrN1vQ-46" value="" style="endArrow=none;html=1;rounded=0;" parent="1" edge="1">
          <mxGeometry width="50" height="50" relative="1" as="geometry">
            <mxPoint x="400" y="560" as="sourcePoint" />
            <mxPoint x="400" y="480" as="targetPoint" />
          </mxGeometry>
        </mxCell>
        <mxCell id="mSR1EGi9H52Qq8BrN1vQ-47" value="" style="endArrow=none;html=1;rounded=0;" parent="1" edge="1">
          <mxGeometry width="50" height="50" relative="1" as="geometry">
            <mxPoint x="319.72" y="560" as="sourcePoint" />
            <mxPoint x="319.72" y="520" as="targetPoint" />
          </mxGeometry>
        </mxCell>
        <mxCell id="mSR1EGi9H52Qq8BrN1vQ-48" value="" style="endArrow=none;html=1;rounded=0;" parent="1" edge="1">
          <mxGeometry width="50" height="50" relative="1" as="geometry">
            <mxPoint x="400" y="560" as="sourcePoint" />
            <mxPoint x="320" y="560" as="targetPoint" />
          </mxGeometry>
        </mxCell>
        <mxCell id="mSR1EGi9H52Qq8BrN1vQ-49" value="" style="endArrow=none;html=1;rounded=0;" parent="1" edge="1">
          <mxGeometry width="50" height="50" relative="1" as="geometry">
            <mxPoint x="440" y="320" as="sourcePoint" />
            <mxPoint x="360" y="320" as="targetPoint" />
          </mxGeometry>
        </mxCell>
        <mxCell id="mSR1EGi9H52Qq8BrN1vQ-50" value="" style="endArrow=none;html=1;rounded=0;" parent="1" edge="1">
          <mxGeometry width="50" height="50" relative="1" as="geometry">
            <mxPoint x="460" y="460" as="sourcePoint" />
            <mxPoint x="440" y="459.58000000000004" as="targetPoint" />
          </mxGeometry>
        </mxCell>
        <mxCell id="mSR1EGi9H52Qq8BrN1vQ-51" value="" style="endArrow=none;html=1;rounded=0;" parent="1" edge="1">
          <mxGeometry width="50" height="50" relative="1" as="geometry">
            <mxPoint x="260" y="500" as="sourcePoint" />
            <mxPoint x="280" y="500.00000000000006" as="targetPoint" />
          </mxGeometry>
        </mxCell>
        <mxCell id="mSR1EGi9H52Qq8BrN1vQ-53" value="" style="endArrow=none;html=1;rounded=0;" parent="1" edge="1">
          <mxGeometry width="50" height="50" relative="1" as="geometry">
            <mxPoint x="260" y="420" as="sourcePoint" />
            <mxPoint x="280" y="420" as="targetPoint" />
          </mxGeometry>
        </mxCell>
        <mxCell id="mSR1EGi9H52Qq8BrN1vQ-54" value="" style="endArrow=none;html=1;rounded=0;entryX=0;entryY=0.5;entryDx=0;entryDy=0;" parent="1" edge="1">
          <mxGeometry width="50" height="50" relative="1" as="geometry">
            <mxPoint x="260" y="140" as="sourcePoint" />
            <mxPoint x="269.9999999999998" y="140.0000000000001" as="targetPoint" />
          </mxGeometry>
        </mxCell>
        <mxCell id="mSR1EGi9H52Qq8BrN1vQ-55" value="" style="endArrow=none;html=1;rounded=0;entryX=0;entryY=0.5;entryDx=0;entryDy=0;" parent="1" target="mSR1EGi9H52Qq8BrN1vQ-22" edge="1">
          <mxGeometry width="50" height="50" relative="1" as="geometry">
            <mxPoint x="300" y="260" as="sourcePoint" />
            <mxPoint x="460.9999999999998" y="141.0000000000001" as="targetPoint" />
          </mxGeometry>
        </mxCell>
        <mxCell id="mSR1EGi9H52Qq8BrN1vQ-56" value="" style="endArrow=none;html=1;rounded=0;entryX=0;entryY=0.5;entryDx=0;entryDy=0;" parent="1" target="mSR1EGi9H52Qq8BrN1vQ-36" edge="1">
          <mxGeometry width="50" height="50" relative="1" as="geometry">
            <mxPoint x="460" y="140" as="sourcePoint" />
            <mxPoint x="320" y="270" as="targetPoint" />
          </mxGeometry>
        </mxCell>
        <mxCell id="mSR1EGi9H52Qq8BrN1vQ-57" value="" style="endArrow=none;html=1;rounded=0;" parent="1" edge="1">
          <mxGeometry width="50" height="50" relative="1" as="geometry">
            <mxPoint x="320" y="120" as="sourcePoint" />
            <mxPoint x="320" y="80" as="targetPoint" />
          </mxGeometry>
        </mxCell>
        <mxCell id="mSR1EGi9H52Qq8BrN1vQ-58" value="" style="endArrow=none;html=1;rounded=0;" parent="1" edge="1">
          <mxGeometry width="50" height="50" relative="1" as="geometry">
            <mxPoint x="399.43" y="120" as="sourcePoint" />
            <mxPoint x="399.43" y="80" as="targetPoint" />
          </mxGeometry>
        </mxCell>
        <mxCell id="mSR1EGi9H52Qq8BrN1vQ-59" value="" style="endArrow=none;html=1;rounded=0;" parent="1" edge="1">
          <mxGeometry width="50" height="50" relative="1" as="geometry">
            <mxPoint x="320" y="80" as="sourcePoint" />
            <mxPoint x="400" y="80" as="targetPoint" />
          </mxGeometry>
        </mxCell>
        <mxCell id="mSR1EGi9H52Qq8BrN1vQ-60" value="" style="endArrow=none;html=1;rounded=0;" parent="1" edge="1">
          <mxGeometry width="50" height="50" relative="1" as="geometry">
            <mxPoint x="360" y="580" as="sourcePoint" />
            <mxPoint x="360" y="560" as="targetPoint" />
          </mxGeometry>
        </mxCell>
        <mxCell id="mSR1EGi9H52Qq8BrN1vQ-61" value="" style="endArrow=none;html=1;rounded=0;" parent="1" edge="1">
          <mxGeometry width="50" height="50" relative="1" as="geometry">
            <mxPoint x="380" y="580" as="sourcePoint" />
            <mxPoint x="340" y="580" as="targetPoint" />
          </mxGeometry>
        </mxCell>
        <mxCell id="mSR1EGi9H52Qq8BrN1vQ-62" value="" style="endArrow=none;html=1;rounded=0;" parent="1" edge="1">
          <mxGeometry width="50" height="50" relative="1" as="geometry">
            <mxPoint x="370" y="590" as="sourcePoint" />
            <mxPoint x="350" y="590" as="targetPoint" />
          </mxGeometry>
        </mxCell>
        <mxCell id="mSR1EGi9H52Qq8BrN1vQ-63" value="" style="endArrow=none;html=1;rounded=0;" parent="1" edge="1">
          <mxGeometry width="50" height="50" relative="1" as="geometry">
            <mxPoint x="360" y="80" as="sourcePoint" />
            <mxPoint x="360" y="60" as="targetPoint" />
          </mxGeometry>
        </mxCell>
        <mxCell id="mSR1EGi9H52Qq8BrN1vQ-64" value="" style="endArrow=none;html=1;rounded=0;" parent="1" edge="1">
          <mxGeometry width="50" height="50" relative="1" as="geometry">
            <mxPoint x="380" y="60" as="sourcePoint" />
            <mxPoint x="340" y="60" as="targetPoint" />
          </mxGeometry>
        </mxCell>
        <mxCell id="mSR1EGi9H52Qq8BrN1vQ-65" value="A" style="text;html=1;align=center;verticalAlign=middle;whiteSpace=wrap;rounded=0;" parent="1" vertex="1">
          <mxGeometry x="240" y="130" width="20" height="20" as="geometry" />
        </mxCell>
        <mxCell id="mSR1EGi9H52Qq8BrN1vQ-66" value="C" style="text;html=1;align=center;verticalAlign=middle;whiteSpace=wrap;rounded=0;" parent="1" vertex="1">
          <mxGeometry x="280" y="250" width="20" height="20" as="geometry" />
        </mxCell>
        <mxCell id="mSR1EGi9H52Qq8BrN1vQ-67" value="B" style="text;html=1;align=center;verticalAlign=middle;whiteSpace=wrap;rounded=0;" parent="1" vertex="1">
          <mxGeometry x="460" y="130" width="20" height="20" as="geometry" />
        </mxCell>
        <mxCell id="mSR1EGi9H52Qq8BrN1vQ-68" value="A" style="text;html=1;align=center;verticalAlign=middle;whiteSpace=wrap;rounded=0;" parent="1" vertex="1">
          <mxGeometry x="240" y="410" width="20" height="20" as="geometry" />
        </mxCell>
        <mxCell id="mSR1EGi9H52Qq8BrN1vQ-69" value="B" style="text;html=1;align=center;verticalAlign=middle;whiteSpace=wrap;rounded=0;" parent="1" vertex="1">
          <mxGeometry x="240" y="490" width="20" height="20" as="geometry" />
        </mxCell>
        <mxCell id="mSR1EGi9H52Qq8BrN1vQ-70" value="C" style="text;html=1;align=center;verticalAlign=middle;whiteSpace=wrap;rounded=0;" parent="1" vertex="1">
          <mxGeometry x="460" y="450" width="20" height="20" as="geometry" />
        </mxCell>
        <mxCell id="mSR1EGi9H52Qq8BrN1vQ-77" value="Y" style="text;html=1;align=center;verticalAlign=middle;whiteSpace=wrap;rounded=0;" parent="1" vertex="1">
          <mxGeometry x="440" y="310" width="20" height="20" as="geometry" />
        </mxCell>
      </root>
    </mxGraphModel>
  </diagram>
</mxfile>
